<svg xmlns="http://www.w3.org/2000/svg" viewBox="2400 5400 3250 960" fill-rule="evenodd" clip-rule="evenodd">
  <defs>
    <style>
      @import url('https://fonts.googleapis.com/css2?family=Amiri:wght@700&amp;display=swap');
      text { font: 700 871.776px 'Amiri'; }
    </style>
    <linearGradient id="jBody" gradientUnits="userSpaceOnUse" x1="2397.85" y1="5849.87" x2="2945.95" y2="5849.87">
      <stop offset="0" stop-color="#FEC52D"/>
      <stop offset="1" stop-color="#F3A261"/>
    </linearGradient>
  </defs>
  <path fill="#373435" d="M2441 5868c-3,34 -1,123 -1,167 0,18 -2,36 12,44 11,7 192,4 220,4 188,-21 136,17 232,-215 -14,-3 -92,-27 -114,-33 -22,-7 -101,-32 -118,-32 -15,0 -43,10 -58,15 -19,5 -38,11 -58,16 -27,8 -94,30 -115,34z"/>
  <path fill="#373435" d="M2440 5792c32,-10 213,-66 232,-66 19,0 196,56 232,66 1,-17 0,-37 0,-54 0,-51 3,-41 -83,-81 -20,-10 -138,-70 -149,-70 -11,0 -130,60 -148,69 -13,6 -24,12 -37,18 -51,24 -47,17 -47,62 0,19 -1,38 0,56z"/>
  <path fill="#4B4B4D" d="M2672 5587c-11,0 -130,60 -148,69 -13,6 -24,12 -37,18 -51,24 -47,17 -47,62 0,19 -1,38 0,56 32,-10 213,-66 232,-66 0,0 1,0 1,0l0 -139c0,0 -1,0 -1,0z"/>
  <circle fill="none" stroke="#373435" stroke-width="6.94488" cx="2672" cy="5890" r="74"/>
  <path fill="url(#jBody)" d="M2944 5510c-47,-4 -100,30 -121,62 -34,50 -29,85 -29,155 0,61 0,122 0,184 -1,151 -204,172 -241,33 -7,-24 -4,-101 -4,-135 0,-26 2,-22 -25,-19 -22,3 -49,16 -64,27 -35,27 -62,66 -62,124 0,108 66,186 146,222 103,46 209,31 289,-26 34,-24 65,-61 84,-100 26,-54 28,-89 28,-158 0,-25 2,-354 -1,-369z"/>
  <circle fill="#FEC52D" cx="2672" cy="5912" r="79"/>
  <path fill="#E3A62B" d="M2611 5932c2,-42 37,-75 79,-75 21,0 39,7 53,20 -13,-26 -40,-45 -71,-45 -34,0 -62,21 -74,51 -3,9 -5,18 -5,29 0,23 10,44 26,58 -5,-10 -8,-22 -8,-34 0,-1 0,-2 0,-4z"/>
  <text x="3018" y="6171" fill="#F4A45F">uz</text>
  <text x="3884" y="6171" fill="#E6E7E8">Dolt</text>
</svg>
